<svg width="160" height="160" viewBox="0 0 160 160" fill="none" xmlns="http://www.w3.org/2000/svg">
<g clip-path="url(#clip0_407_73)">
<path d="M45.1025 66.7525C44.9225 72.415 47.7525 74.9225 47.8225 76.515C47.7892 76.8391 47.6788 77.1506 47.5004 77.4233C47.3221 77.696 47.0811 77.922 46.7975 78.0825L43.5975 80.3225C43.1834 80.6128 42.6952 80.7793 42.19 80.8025C42.0825 80.7975 40.1425 81.26 37.07 74.4C35.1955 76.7399 32.8104 78.6199 30.0974 79.896C27.3844 81.1721 24.4153 81.8106 21.4175 81.7625C17.3475 81.985 6.31752 79.4525 6.88502 67.71C6.48752 58.14 15.4 52.195 24.6175 52.6975C26.3925 52.7025 30.0175 52.79 36.365 54.265V50.36C37.0375 43.745 32.69 38.6125 25.1625 39.3825C24.5625 39.385 20.3125 39.2575 13.7025 41.91C11.8625 42.755 11.6275 42.615 11.015 42.615C9.16252 42.615 9.92502 37.245 10.28 36.565C11.5825 34.965 19.245 31.9775 26.765 32.02C31.7931 31.5753 36.7943 33.1271 40.6875 36.34C42.2701 38.1102 43.4775 40.1828 44.2367 42.4326C44.996 44.6825 45.2914 47.0628 45.105 49.43L45.1025 66.7525ZM23.4975 74.85C31.605 74.7325 35.0375 69.8575 35.82 67.2325C36.435 64.72 36.3325 63.13 36.3325 60.3825C33.915 59.8025 30.435 59.17 26.4425 59.165C22.655 58.88 15.7375 60.5725 16.0075 67.23C15.6975 71.4275 18.7875 75.08 23.4975 74.85ZM66.2275 80.6125C64.2625 80.7925 63.3475 79.3975 63.0575 78.02L50.6075 36.8575C50.365 36.1625 50.205 35.445 50.1275 34.7125C50.0816 34.4105 50.1574 34.1026 50.3384 33.8565C50.5193 33.6104 50.7906 33.4462 51.0925 33.4C51.1525 33.39 50.56 33.4 56.655 33.4C58.85 33.18 59.565 34.9075 59.7925 35.9925L68.7225 71.2L77.0125 35.9925C77.145 35.1875 77.7475 33.225 80.2125 33.4325H84.5025C85.045 33.3875 87.28 33.3075 87.6725 36.025L96.0275 71.6825L105.245 36.025C105.365 35.48 105.925 33.1825 108.415 33.4325H113.345C113.558 33.4 114.883 33.23 114.658 35.5775C114.55 36.04 115.51 32.9125 101.47 78.0525C101.183 79.43 100.265 80.825 98.3 80.645H93.6275C90.8925 80.9325 90.5 78.23 90.4575 77.9575L82.1675 43.675L73.9725 77.9225C73.9325 78.195 73.54 80.8975 70.8025 80.61H66.2275V80.6125ZM134.598 82.02C133.128 82.0225 126.118 81.945 120.258 78.9475C119.674 78.7004 119.177 78.2854 118.829 77.7553C118.481 77.2252 118.299 76.6039 118.305 75.97V73.2825C118.305 71.17 119.855 71.5575 120.513 71.81C123.023 72.825 124.633 73.595 127.715 74.21C136.878 76.0925 140.908 73.635 141.895 73.09C145.183 71.1375 145.443 66.67 143.208 64.3525C140.588 62.155 139.338 62.0725 129.925 59.1025C128.765 58.78 119 55.7 118.978 46.0125C118.825 38.9525 125.24 31.9675 136.358 32.025C139.525 32.0225 147.965 33.0575 150.25 35.93C150.588 36.4525 150.755 37.0675 150.73 37.69V40.2175C150.73 41.3275 150.325 41.8825 149.513 41.8825C147.585 41.6675 144.165 39.09 137.223 39.195C135.5 39.105 127.25 39.4225 127.62 45.4375C127.513 50.1775 134.273 51.955 135.045 52.16C144.16 54.9025 147.208 55.3575 150.825 59.555C155.11 65.1175 152.8 71.63 151.913 73.415C147.143 82.7875 134.808 82.025 134.598 82.02ZM144.648 108.235C127.14 121.165 101.725 128.048 80.025 128.048C50.7451 128.241 22.452 117.474 0.707517 97.865C-0.924983 96.3925 0.515017 94.375 2.50002 95.4975C26.6211 109.295 53.9313 116.545 81.72 116.528C102.472 116.416 122.997 112.206 142.118 104.14C145.063 102.89 147.56 106.09 144.648 108.235ZM151.945 99.9125C149.705 97.0325 137.125 98.5675 131.493 99.24C129.795 99.4325 129.508 97.96 131.045 96.8725C141.063 89.83 157.515 91.8475 159.405 94.215C161.293 96.5825 158.893 113.068 149.515 120.943C148.075 122.16 146.698 121.518 147.338 119.918C149.448 114.605 154.185 102.795 151.945 99.9125Z" fill="#FF9900"/>
</g>
<defs>
<clipPath id="clip0_407_73">
<rect width="160" height="160" fill="white"/>
</clipPath>
</defs>
</svg>
