<svg width="160" height="160" viewBox="0 0 160 160" fill="none" xmlns="http://www.w3.org/2000/svg">
<path d="M101.25 101.25C112.986 101.25 122.5 91.736 122.5 80C122.5 68.2639 112.986 58.75 101.25 58.75C89.5139 58.75 80 68.2639 80 80C80 91.736 89.5139 101.25 101.25 101.25Z" stroke="#00BEFF" stroke-width="4" stroke-linecap="round" stroke-linejoin="round"/>
<path d="M80 58.75V16.25H58.75C53.1141 16.25 47.7091 18.4888 43.724 22.474C39.7388 26.4591 37.5 31.8641 37.5 37.5C37.5 43.1359 39.7388 48.5409 43.724 52.526C47.7091 56.5112 53.1141 58.75 58.75 58.75H80Z" stroke="#FF3B00" stroke-width="4" stroke-linecap="round" stroke-linejoin="round"/>
<path d="M80 101.25V58.75H58.75C53.1141 58.75 47.7091 60.9888 43.724 64.974C39.7388 68.9591 37.5 74.3641 37.5 80C37.5 85.6359 39.7388 91.0409 43.724 95.026C47.7091 99.0112 53.1141 101.25 58.75 101.25H80Z" stroke="#AE4DFF" stroke-width="4" stroke-linecap="round" stroke-linejoin="round"/>
<path d="M80 58.75V16.25H101.25C106.886 16.25 112.291 18.4888 116.276 22.474C120.261 26.4591 122.5 31.8641 122.5 37.5C122.5 43.1359 120.261 48.5409 116.276 52.526C112.291 56.5112 106.886 58.75 101.25 58.75H80Z" stroke="#FF3B00" stroke-opacity="0.8" stroke-width="4" stroke-linecap="round" stroke-linejoin="round"/>
<path d="M80 101.25V122.5C80 126.703 78.7537 130.811 76.4187 134.306C74.0838 137.8 70.765 140.524 66.882 142.132C62.9991 143.741 58.7264 144.162 54.6043 143.342C50.4822 142.522 46.6959 140.498 43.724 137.526C40.7521 134.554 38.7283 130.768 37.9083 126.646C37.0884 122.524 37.5092 118.251 39.1176 114.368C40.7259 110.485 43.4496 107.166 46.9441 104.831C50.4387 102.496 54.5472 101.25 58.75 101.25H80Z" stroke="#00D47B" stroke-width="4" stroke-linecap="round" stroke-linejoin="round"/>
</svg>
