<svg width="160" height="160" viewBox="0 0 160 160" fill="none" xmlns="http://www.w3.org/2000/svg">
<path d="M80 158.75C77.9062 158.75 75.7812 158.188 73.9375 157.125L54.6562 145.719C51.7812 144.094 53.1875 143.531 54.125 143.219C57.9687 141.875 58.75 141.594 62.8437 139.25C63.2812 139 63.8437 139.094 64.2812 139.375L79.0937 148.156C79.625 148.469 80.375 148.469 80.875 148.156L138.594 114.844C139.125 114.531 139.469 113.906 139.469 113.281V46.6563C139.469 46 139.125 45.4063 138.562 45.0625L80.875 11.7813C80.3437 11.4688 79.625 11.4688 79.0937 11.7813L21.4375 45.0938C20.875 45.4063 20.5312 46.0313 20.5312 46.6875V113.281C20.5312 113.906 20.875 114.531 21.4375 114.813L37.25 123.938C45.8437 128.219 51.0937 123.188 51.0937 118.094V52.3438C51.0937 51.4063 51.8437 50.6875 52.7812 50.6875H60.0937C61 50.6875 61.7812 51.4063 61.7812 52.3438V118.125C61.7812 129.563 55.5312 136.125 44.6875 136.125C41.3437 136.125 38.7187 136.125 31.4062 132.5L16.2812 123.781C12.5312 121.625 10.2188 117.594 10.2188 113.25V46.6563C10.2188 42.3438 12.5312 38.2813 16.2812 36.125L73.9375 2.8125C77.5937 0.75 82.4375 0.75 86.0625 2.8125L143.781 36.1563C147.531 38.3125 149.844 42.3438 149.844 46.6875V113.281C149.844 117.594 147.531 121.625 143.781 123.813L86.0625 157.125C84.2187 158.188 82.125 158.75 80 158.75ZM126.594 93.0938C126.594 80.625 118.156 77.3125 100.437 74.9688C82.5 72.5938 80.6875 71.375 80.6875 67.1875C80.6875 63.7188 82.2187 59.0938 95.5 59.0938C107.344 59.0938 111.719 61.6563 113.531 69.6563C113.687 70.4063 114.375 70.9688 115.156 70.9688H122.656C123.125 70.9688 123.562 70.7813 123.875 70.4375C124.187 70.0938 124.344 69.625 124.312 69.1563C123.156 55.375 114 48.9688 95.5 48.9688C79.0312 48.9688 69.2187 55.9063 69.2187 67.5625C69.2187 80.1875 79 83.6875 94.7812 85.25C113.687 87.0938 115.156 89.875 115.156 93.5938C115.156 100.031 109.969 102.781 97.8125 102.781C82.5312 102.781 79.1875 98.9375 78.0625 91.3438C77.9375 90.5313 77.25 89.9375 76.4062 89.9375H68.9375C68 89.9375 67.2812 90.6875 67.2812 91.5938C67.2812 101.313 72.5625 112.906 97.8437 112.906C116.094 112.875 126.594 105.656 126.594 93.0938Z" fill="#68A063"/>
</svg>
