<svg width="160" height="160" viewBox="0 0 160 160" fill="none" xmlns="http://www.w3.org/2000/svg">
<path d="M130.688 55.375C129 54.8125 127.313 54.2813 125.625 53.7813C125.906 52.625 126.156 51.4688 126.406 50.3125C130.25 31.6875 127.719 16.7187 119.187 11.7812C110.969 7.0625 97.5625 11.9687 84 23.7812C82.6562 24.9375 81.3437 26.1562 80.0937 27.375C79.25 26.5625 78.375 25.75 77.5 24.9688C63.2812 12.3437 49.0313 7.03125 40.5 12C32.3125 16.75 29.875 30.8438 33.3125 48.4688C33.6562 50.2188 34.0313 51.9375 34.4688 53.6875C32.4688 54.25 30.5 54.875 28.6562 55.5312C11.9687 61.3125 0 70.4375 0 79.875C0 89.625 12.75 99.4063 30.0938 105.344C31.5 105.813 32.9063 106.281 34.3438 106.688C33.875 108.563 33.4688 110.406 33.0938 112.313C29.8125 129.656 32.375 143.406 40.5625 148.125C49 153 63.1875 148 77 135.906C78.0937 134.938 79.1875 133.938 80.2812 132.875C81.6562 134.219 83.0938 135.5 84.5312 136.75C97.9062 148.25 111.125 152.906 119.281 148.188C127.719 143.313 130.469 128.531 126.906 110.531C126.625 109.156 126.313 107.75 125.969 106.313C126.969 106.031 127.938 105.719 128.906 105.406C146.938 99.4375 160 89.7813 160 79.875C160 70.4063 147.688 61.2188 130.688 55.375ZM88.4062 28.8438C100.031 18.7187 110.875 14.75 115.813 17.5937C121.094 20.625 123.125 32.875 119.812 48.9688C119.594 50.0313 119.375 51.0625 119.094 52.0937C112.156 50.5312 105.125 49.4063 98.0625 48.7813C94 42.9688 89.5625 37.4063 84.75 32.1875C85.9688 31.0313 87.1562 29.9375 88.4062 28.8438ZM52.25 96.0938C53.8437 98.8125 55.4688 101.531 57.1875 104.188C52.3125 103.656 47.4688 102.875 42.6875 101.844C44.0625 97.3438 45.7812 92.6875 47.7812 87.9375C49.2187 90.6875 50.6875 93.4063 52.25 96.0938ZM42.7812 58.5C47.2812 57.5 52.0625 56.6875 57.0312 56.0625C55.375 58.6562 53.75 61.3125 52.2188 64C50.6875 66.6563 49.1875 69.375 47.7812 72.125C45.8125 67.4688 44.1562 62.9063 42.7812 58.5ZM51.3438 80.0313C53.4063 75.7188 55.6562 71.5 58.0312 67.3438C60.4062 63.1875 62.9688 59.1563 65.6563 55.1875C70.3438 54.8438 75.125 54.6562 80 54.6562C84.875 54.6562 89.6875 54.8438 94.3437 55.1875C97 59.125 99.5313 63.1563 101.938 67.2813C104.344 71.4063 106.594 75.625 108.719 79.9063C106.625 84.2188 104.375 88.4688 101.969 92.6563C99.5937 96.8125 97.0625 100.844 94.4063 104.844C89.75 105.188 84.9062 105.344 80 105.344C75.0938 105.344 70.3437 105.188 65.75 104.906C63.0312 100.938 60.4688 96.875 58.0625 92.7188C55.6563 88.5625 53.4375 84.3438 51.3438 80.0313ZM107.781 96.0313C109.375 93.2813 110.875 90.5 112.344 87.6875C114.344 92.2188 116.094 96.8125 117.625 101.531C112.781 102.625 107.875 103.469 102.937 104.031C104.625 101.406 106.219 98.7188 107.781 96.0313ZM112.281 72.125C110.812 69.375 109.312 66.625 107.75 63.9375C106.219 61.2813 104.625 58.6562 102.969 56.0625C108 56.6875 112.812 57.5312 117.312 58.5625C115.875 63.1875 114.187 67.6875 112.281 72.125ZM80.0625 36.9688C83.3438 40.5313 86.4375 44.2813 89.3125 48.1563C83.125 47.875 76.9063 47.875 70.7188 48.1563C73.7813 44.125 76.9375 40.375 80.0625 36.9688ZM43.8125 17.8125C49.0625 14.75 60.7188 19.125 73 30C73.7813 30.6875 74.5625 31.4375 75.375 32.1875C70.5312 37.4063 66.0625 42.9688 61.9688 48.7813C54.9063 49.4063 47.9063 50.5 40.9688 52.0313C40.5625 50.4375 40.2187 48.8125 39.875 47.1875C36.9375 32.0625 38.875 20.6562 43.8125 17.8125ZM36.1562 100.188C34.8437 99.8125 33.5625 99.4063 32.2813 98.9688C25.625 96.875 18.0625 93.5625 12.5937 89.2188C9.4375 87.0313 7.3125 83.6563 6.71875 79.875C6.71875 74.1563 16.5937 66.8438 30.8437 61.875C32.625 61.25 34.4375 60.6875 36.25 60.1563C38.375 66.9375 40.9375 73.5938 43.9062 80.0313C40.9062 86.5625 38.3125 93.3125 36.1562 100.188ZM72.5938 130.813C67.4375 135.531 61.4687 139.281 54.9687 141.844C51.5 143.5 47.5 143.656 43.9375 142.25C38.9688 139.375 36.9062 128.344 39.7187 113.5C40.0625 111.75 40.4375 110 40.875 108.281C47.875 109.781 54.9375 110.813 62.0937 111.344C66.2187 117.188 70.75 122.781 75.5937 128.031C74.5937 129 73.5938 129.938 72.5938 130.813ZM80.25 123.219C77.0625 119.781 73.875 115.969 70.7812 111.875C73.7813 112 76.875 112.063 80 112.063C83.2188 112.063 86.375 112 89.5 111.844C86.625 115.813 83.5312 119.594 80.25 123.219ZM121.094 132.594C120.813 136.406 118.938 139.969 115.938 142.375C110.969 145.25 100.375 141.5 88.9375 131.688C87.625 130.563 86.3125 129.344 84.9687 128.094C89.75 122.813 94.1563 117.219 98.1563 111.344C105.313 110.75 112.437 109.656 119.469 108.063C119.781 109.344 120.062 110.625 120.312 111.875C121.844 118.625 122.094 125.656 121.094 132.594ZM126.781 99C125.906 99.2813 125.031 99.5625 124.125 99.8125C121.938 93 119.25 86.3438 116.156 79.875C119.156 73.5 121.688 66.9375 123.813 60.2188C125.438 60.6875 127 61.1875 128.5 61.6875C143.063 66.6875 153.281 74.125 153.281 79.8125C153.281 85.9375 142.375 93.8438 126.781 99ZM80 94.3125C87.9062 94.3125 94.3125 87.9063 94.3125 80C94.3125 72.0938 87.9062 65.6875 80 65.6875C72.0938 65.6875 65.6875 72.0938 65.6875 80C65.6875 87.9063 72.0938 94.3125 80 94.3125Z" fill="#61DBFB"/>
</svg>
